<svg width="160" height="40" viewBox="0 0 160 40" fill="none" xmlns="http://www.w3.org/2000/svg">
<path d="M0 26.516V9.71599H3.888V23.348H12.312V26.516H0Z" fill="white"/>
<path d="M19.6215 26.708C18.5495 26.708 17.5895 26.5 16.7415 26.084C15.9095 25.668 15.2615 25.036 14.7975 24.188C14.3335 23.324 14.1015 22.228 14.1015 20.9V13.604H17.8455V20.348C17.8455 21.42 18.0695 22.212 18.5175 22.724C18.9815 23.22 19.6295 23.468 20.4615 23.468C21.0375 23.468 21.5495 23.348 21.9975 23.108C22.4455 22.852 22.7975 22.468 23.0535 21.956C23.3095 21.428 23.4375 20.772 23.4375 19.988V13.604H27.1815V26.516H23.6295V22.964L24.2775 23.996C23.8455 24.892 23.2055 25.572 22.3575 26.036C21.5255 26.484 20.6135 26.708 19.6215 26.708Z" fill="white"/>
<path d="M38.4981 13.412C39.5221 13.412 40.4341 13.62 41.2341 14.036C42.0501 14.436 42.6901 15.06 43.1541 15.908C43.6181 16.74 43.8501 17.812 43.8501 19.124V26.516H40.1061V19.7C40.1061 18.66 39.8741 17.892 39.4101 17.396C38.9621 16.9 38.3221 16.652 37.4901 16.652C36.8981 16.652 36.3621 16.78 35.8821 17.036C35.4181 17.276 35.0501 17.652 34.7781 18.164C34.5221 18.676 34.3941 19.332 34.3941 20.132V26.516H30.6501V13.604H34.2261V17.18L33.5541 16.1C34.0181 15.236 34.6821 14.572 35.5461 14.108C36.4101 13.644 37.3941 13.412 38.4981 13.412Z" fill="white"/>
<path d="M53.5776 26.708C52.1856 26.708 50.9456 26.428 49.8576 25.868C48.7696 25.292 47.9136 24.5 47.2896 23.492C46.6816 22.484 46.3776 21.34 46.3776 20.06C46.3776 18.764 46.6816 17.62 47.2896 16.628C47.9136 15.62 48.7696 14.836 49.8576 14.276C50.9456 13.7 52.1856 13.412 53.5776 13.412C54.9376 13.412 56.1216 13.7 57.1296 14.276C58.1376 14.836 58.8816 15.644 59.3616 16.7L56.4576 18.26C56.1216 17.652 55.6976 17.204 55.1856 16.916C54.6896 16.628 54.1456 16.484 53.5536 16.484C52.9136 16.484 52.3376 16.628 51.8256 16.916C51.3136 17.204 50.9056 17.612 50.6016 18.14C50.3136 18.668 50.1696 19.308 50.1696 20.06C50.1696 20.812 50.3136 21.452 50.6016 21.98C50.9056 22.508 51.3136 22.916 51.8256 23.204C52.3376 23.492 52.9136 23.636 53.5536 23.636C54.1456 23.636 54.6896 23.5 55.1856 23.228C55.6976 22.94 56.1216 22.484 56.4576 21.86L59.3616 23.444C58.8816 24.484 58.1376 25.292 57.1296 25.868C56.1216 26.428 54.9376 26.708 53.5776 26.708Z" fill="white"/>
<path d="M69.2949 13.412C70.3189 13.412 71.2309 13.62 72.0309 14.036C72.8469 14.436 73.4869 15.06 73.9509 15.908C74.4149 16.74 74.6469 17.812 74.6469 19.124V26.516H70.9029V19.7C70.9029 18.66 70.6709 17.892 70.2069 17.396C69.7589 16.9 69.1189 16.652 68.2869 16.652C67.6949 16.652 67.1589 16.78 66.6789 17.036C66.2149 17.276 65.8469 17.652 65.5749 18.164C65.3189 18.676 65.1909 19.332 65.1909 20.132V26.516H61.4469V8.70799H65.1909V17.18L64.3509 16.1C64.8149 15.236 65.4789 14.572 66.3429 14.108C67.2069 13.644 68.1909 13.412 69.2949 13.412Z" fill="white"/>
<path d="M79.0487 26.516V9.71599H86.2967C88.1687 9.71599 89.6167 10.092 90.6407 10.844C91.6807 11.596 92.2007 12.66 92.2007 14.036C92.2007 14.948 91.9847 15.716 91.5527 16.34C91.1367 16.964 90.5607 17.436 89.8247 17.756C89.1047 18.076 88.3127 18.236 87.4487 18.236L87.8567 17.66C88.9287 17.66 89.8487 17.828 90.6167 18.164C91.4007 18.484 92.0087 18.972 92.4407 19.628C92.8727 20.268 93.0887 21.068 93.0887 22.028C93.0887 23.452 92.5607 24.556 91.5047 25.34C90.4647 26.124 88.8887 26.516 86.7767 26.516H79.0487ZM80.8247 25.052H86.7527C88.2247 25.052 89.3527 24.804 90.1367 24.308C90.9207 23.796 91.3127 22.988 91.3127 21.884C91.3127 20.796 90.9207 20.004 90.1367 19.508C89.3527 18.996 88.2247 18.74 86.7527 18.74H80.6327V17.276H86.1767C87.5207 17.276 88.5607 17.02 89.2967 16.508C90.0487 15.996 90.4247 15.236 90.4247 14.228C90.4247 13.204 90.0487 12.444 89.2967 11.948C88.5607 11.436 87.5207 11.18 86.1767 11.18H80.8247V25.052Z" fill="white"/>
<path d="M101.99 26.636C100.918 26.636 99.9824 26.436 99.1824 26.036C98.3824 25.636 97.7584 25.036 97.3104 24.236C96.8784 23.436 96.6624 22.436 96.6624 21.236V13.916H98.3664V21.044C98.3664 22.388 98.6944 23.404 99.3504 24.092C100.022 24.764 100.958 25.1 102.158 25.1C103.038 25.1 103.798 24.924 104.438 24.572C105.094 24.204 105.59 23.676 105.926 22.988C106.278 22.3 106.454 21.476 106.454 20.516V13.916H108.158V26.516H106.526V23.06L106.79 23.684C106.39 24.612 105.766 25.34 104.918 25.868C104.086 26.38 103.11 26.636 101.99 26.636Z" fill="white"/>
<path d="M117.923 26.636C116.723 26.636 115.643 26.364 114.683 25.82C113.739 25.276 112.995 24.524 112.451 23.564C111.907 22.588 111.635 21.468 111.635 20.204C111.635 18.924 111.907 17.804 112.451 16.844C112.995 15.884 113.739 15.14 114.683 14.612C115.643 14.068 116.723 13.796 117.923 13.796C119.027 13.796 120.011 14.044 120.875 14.54C121.755 15.036 122.451 15.764 122.963 16.724C123.491 17.668 123.755 18.828 123.755 20.204C123.755 21.564 123.499 22.724 122.987 23.684C122.475 24.644 121.779 25.38 120.899 25.892C120.035 26.388 119.043 26.636 117.923 26.636ZM118.043 25.124C118.939 25.124 119.739 24.924 120.443 24.524C121.163 24.108 121.723 23.532 122.123 22.796C122.539 22.044 122.747 21.18 122.747 20.204C122.747 19.212 122.539 18.348 122.123 17.612C121.723 16.876 121.163 16.308 120.443 15.908C119.739 15.492 118.939 15.284 118.043 15.284C117.163 15.284 116.371 15.492 115.667 15.908C114.963 16.308 114.403 16.876 113.987 17.612C113.571 18.348 113.363 19.212 113.363 20.204C113.363 21.18 113.571 22.044 113.987 22.796C114.403 23.532 114.963 24.108 115.667 24.524C116.371 24.924 117.163 25.124 118.043 25.124ZM122.795 26.516V22.724L122.963 20.18L122.723 17.636V8.70799H124.427V26.516H122.795Z" fill="white"/>
<path d="M134.189 26.636C132.989 26.636 131.909 26.364 130.949 25.82C130.005 25.276 129.261 24.524 128.717 23.564C128.173 22.588 127.901 21.468 127.901 20.204C127.901 18.924 128.173 17.804 128.717 16.844C129.261 15.884 130.005 15.14 130.949 14.612C131.909 14.068 132.989 13.796 134.189 13.796C135.293 13.796 136.277 14.044 137.141 14.54C138.021 15.036 138.717 15.764 139.229 16.724C139.757 17.668 140.021 18.828 140.021 20.204C140.021 21.564 139.765 22.724 139.253 23.684C138.741 24.644 138.045 25.38 137.165 25.892C136.301 26.388 135.309 26.636 134.189 26.636ZM134.309 25.124C135.205 25.124 136.005 24.924 136.709 24.524C137.429 24.108 137.989 23.532 138.389 22.796C138.805 22.044 139.013 21.18 139.013 20.204C139.013 19.212 138.805 18.348 138.389 17.612C137.989 16.876 137.429 16.308 136.709 15.908C136.005 15.492 135.205 15.284 134.309 15.284C133.429 15.284 132.637 15.492 131.933 15.908C131.229 16.308 130.669 16.876 130.253 17.612C129.837 18.348 129.629 19.212 129.629 20.204C129.629 21.18 129.837 22.044 130.253 22.796C130.669 23.532 131.229 24.108 131.933 24.524C132.637 24.924 133.429 25.124 134.309 25.124ZM139.061 26.516V22.724L139.229 20.18L138.989 17.636V8.70799H140.693V26.516H139.061Z" fill="white"/>
<path d="M145.535 31.292C144.943 31.292 144.375 31.196 143.831 31.004C143.303 30.812 142.847 30.524 142.463 30.14L143.255 28.868C143.575 29.172 143.919 29.404 144.287 29.564C144.671 29.74 145.095 29.828 145.559 29.828C146.119 29.828 146.599 29.668 146.999 29.348C147.415 29.044 147.807 28.5 148.175 27.716L148.991 25.868L149.183 25.604L154.367 13.916H156.047L149.735 28.028C149.383 28.844 148.991 29.492 148.559 29.972C148.143 30.452 147.687 30.788 147.191 30.98C146.695 31.188 146.143 31.292 145.535 31.292ZM148.895 26.876L143.087 13.916H144.863L149.999 25.484L148.895 26.876Z" fill="white"/>
</svg>
