<svg width="168" height="42" viewBox="0 0 168 42" fill="none" xmlns="http://www.w3.org/2000/svg">
<path d="M0 27.7875V10.2875H4.05V24.4875H12.825V27.7875H0Z" fill="#3056D3"/>
<path d="M20.4391 27.9875C19.3224 27.9875 18.3224 27.7708 17.4391 27.3375C16.5724 26.9042 15.8974 26.2458 15.4141 25.3625C14.9307 24.4625 14.6891 23.3208 14.6891 21.9375V14.3375H18.5891V21.3625C18.5891 22.4792 18.8224 23.3042 19.2891 23.8375C19.7724 24.3542 20.4474 24.6125 21.3141 24.6125C21.9141 24.6125 22.4474 24.4875 22.9141 24.2375C23.3807 23.9708 23.7474 23.5708 24.0141 23.0375C24.2807 22.4875 24.4141 21.8042 24.4141 20.9875V14.3375H28.3141V27.7875H24.6141V24.0875L25.2891 25.1625C24.8391 26.0958 24.1724 26.8042 23.2891 27.2875C22.4224 27.7542 21.4724 27.9875 20.4391 27.9875Z" fill="#3056D3"/>
<path d="M40.1021 14.1375C41.1688 14.1375 42.1188 14.3542 42.9521 14.7875C43.8021 15.2042 44.4688 15.8542 44.9521 16.7375C45.4355 17.6042 45.6772 18.7208 45.6772 20.0875V27.7875H41.7771V20.6875C41.7771 19.6042 41.5355 18.8042 41.0521 18.2875C40.5855 17.7708 39.9188 17.5125 39.0522 17.5125C38.4355 17.5125 37.8771 17.6458 37.3771 17.9125C36.8938 18.1625 36.5105 18.5542 36.2271 19.0875C35.9605 19.6208 35.8271 20.3042 35.8271 21.1375V27.7875H31.9271V14.3375H35.6521V18.0625L34.9521 16.9375C35.4355 16.0375 36.1271 15.3458 37.0271 14.8625C37.9271 14.3792 38.9521 14.1375 40.1021 14.1375Z" fill="#3056D3"/>
<path d="M55.81 27.9875C54.36 27.9875 53.0683 27.6958 51.935 27.1125C50.8016 26.5125 49.91 25.6875 49.26 24.6375C48.6266 23.5875 48.31 22.3958 48.31 21.0625C48.31 19.7125 48.6266 18.5208 49.26 17.4875C49.91 16.4375 50.8016 15.6208 51.935 15.0375C53.0683 14.4375 54.36 14.1375 55.81 14.1375C57.2266 14.1375 58.46 14.4375 59.51 15.0375C60.56 15.6208 61.335 16.4625 61.835 17.5625L58.81 19.1875C58.46 18.5542 58.0183 18.0875 57.485 17.7875C56.9683 17.4875 56.4016 17.3375 55.785 17.3375C55.1183 17.3375 54.5183 17.4875 53.985 17.7875C53.4516 18.0875 53.0266 18.5125 52.71 19.0625C52.41 19.6125 52.26 20.2792 52.26 21.0625C52.26 21.8458 52.41 22.5125 52.71 23.0625C53.0266 23.6125 53.4516 24.0375 53.985 24.3375C54.5183 24.6375 55.1183 24.7875 55.785 24.7875C56.4016 24.7875 56.9683 24.6458 57.485 24.3625C58.0183 24.0625 58.46 23.5875 58.81 22.9375L61.835 24.5875C61.335 25.6708 60.56 26.5125 59.51 27.1125C58.46 27.6958 57.2266 27.9875 55.81 27.9875Z" fill="#3056D3"/>
<path d="M72.1822 14.1375C73.2489 14.1375 74.1989 14.3542 75.0322 14.7875C75.8822 15.2042 76.5489 15.8542 77.0322 16.7375C77.5156 17.6042 77.7572 18.7208 77.7572 20.0875V27.7875H73.8572V20.6875C73.8572 19.6042 73.6156 18.8042 73.1322 18.2875C72.6656 17.7708 71.9989 17.5125 71.1322 17.5125C70.5156 17.5125 69.9572 17.6458 69.4572 17.9125C68.9739 18.1625 68.5906 18.5542 68.3072 19.0875C68.0406 19.6208 67.9072 20.3042 67.9072 21.1375V27.7875H64.0072V9.2375H67.9072V18.0625L67.0322 16.9375C67.5156 16.0375 68.2072 15.3458 69.1072 14.8625C70.0072 14.3792 71.0322 14.1375 72.1822 14.1375Z" fill="#3056D3"/>
<path d="M82.3424 27.7875V10.2875H89.8924C91.8424 10.2875 93.3507 10.6792 94.4174 11.4625C95.5007 12.2458 96.0424 13.3542 96.0424 14.7875C96.0424 15.7375 95.8174 16.5375 95.3674 17.1875C94.9341 17.8375 94.334 18.3292 93.5674 18.6625C92.8174 18.9958 91.9924 19.1625 91.0924 19.1625L91.5174 18.5625C92.6341 18.5625 93.5924 18.7375 94.3924 19.0875C95.209 19.4208 95.8424 19.9292 96.2924 20.6125C96.7424 21.2792 96.9674 22.1125 96.9674 23.1125C96.9674 24.5958 96.4174 25.7458 95.3174 26.5625C94.234 27.3792 92.5924 27.7875 90.3924 27.7875H82.3424ZM84.1924 26.2625H90.3674C91.9007 26.2625 93.0757 26.0042 93.8924 25.4875C94.709 24.9542 95.1174 24.1125 95.1174 22.9625C95.1174 21.8292 94.709 21.0042 93.8924 20.4875C93.0757 19.9542 91.9007 19.6875 90.3674 19.6875H83.9924V18.1625H89.7674C91.1674 18.1625 92.2507 17.8958 93.0174 17.3625C93.8007 16.8292 94.1924 16.0375 94.1924 14.9875C94.1924 13.9208 93.8007 13.1292 93.0174 12.6125C92.2507 12.0792 91.1674 11.8125 89.7674 11.8125H84.1924V26.2625Z" fill="#3056D3"/>
<path d="M106.24 27.9125C105.123 27.9125 104.148 27.7042 103.315 27.2875C102.482 26.8708 101.832 26.2458 101.365 25.4125C100.915 24.5792 100.69 23.5375 100.69 22.2875V14.6625H102.465V22.0875C102.465 23.4875 102.807 24.5458 103.49 25.2625C104.19 25.9625 105.165 26.3125 106.415 26.3125C107.332 26.3125 108.123 26.1292 108.79 25.7625C109.473 25.3792 109.99 24.8292 110.34 24.1125C110.707 23.3958 110.89 22.5375 110.89 21.5375V14.6625H112.665V27.7875H110.965V24.1875L111.24 24.8375C110.823 25.8042 110.173 26.5625 109.29 27.1125C108.423 27.6458 107.407 27.9125 106.24 27.9125Z" fill="#3056D3"/>
<path d="M122.837 27.9125C121.587 27.9125 120.462 27.6292 119.462 27.0625C118.479 26.4958 117.704 25.7125 117.137 24.7125C116.57 23.6958 116.287 22.5292 116.287 21.2125C116.287 19.8792 116.57 18.7125 117.137 17.7125C117.704 16.7125 118.479 15.9375 119.462 15.3875C120.462 14.8208 121.587 14.5375 122.837 14.5375C123.987 14.5375 125.012 14.7958 125.912 15.3125C126.829 15.8292 127.554 16.5875 128.087 17.5875C128.637 18.5708 128.912 19.7792 128.912 21.2125C128.912 22.6292 128.645 23.8375 128.112 24.8375C127.579 25.8375 126.854 26.6042 125.937 27.1375C125.037 27.6542 124.004 27.9125 122.837 27.9125ZM122.962 26.3375C123.895 26.3375 124.729 26.1292 125.462 25.7125C126.212 25.2792 126.795 24.6792 127.212 23.9125C127.645 23.1292 127.862 22.2292 127.862 21.2125C127.862 20.1792 127.645 19.2792 127.212 18.5125C126.795 17.7458 126.212 17.1542 125.462 16.7375C124.729 16.3042 123.895 16.0875 122.962 16.0875C122.045 16.0875 121.22 16.3042 120.487 16.7375C119.754 17.1542 119.17 17.7458 118.737 18.5125C118.304 19.2792 118.087 20.1792 118.087 21.2125C118.087 22.2292 118.304 23.1292 118.737 23.9125C119.17 24.6792 119.754 25.2792 120.487 25.7125C121.22 26.1292 122.045 26.3375 122.962 26.3375ZM127.912 27.7875V23.8375L128.087 21.1875L127.837 18.5375V9.2375H129.612V27.7875H127.912Z" fill="#3056D3"/>
<path d="M139.78 27.9125C138.53 27.9125 137.405 27.6292 136.405 27.0625C135.422 26.4958 134.647 25.7125 134.08 24.7125C133.514 23.6958 133.23 22.5292 133.23 21.2125C133.23 19.8792 133.514 18.7125 134.08 17.7125C134.647 16.7125 135.422 15.9375 136.405 15.3875C137.405 14.8208 138.53 14.5375 139.78 14.5375C140.93 14.5375 141.955 14.7958 142.855 15.3125C143.772 15.8292 144.497 16.5875 145.03 17.5875C145.58 18.5708 145.855 19.7792 145.855 21.2125C145.855 22.6292 145.589 23.8375 145.055 24.8375C144.522 25.8375 143.797 26.6042 142.88 27.1375C141.98 27.6542 140.947 27.9125 139.78 27.9125ZM139.905 26.3375C140.839 26.3375 141.672 26.1292 142.405 25.7125C143.155 25.2792 143.739 24.6792 144.155 23.9125C144.589 23.1292 144.805 22.2292 144.805 21.2125C144.805 20.1792 144.589 19.2792 144.155 18.5125C143.739 17.7458 143.155 17.1542 142.405 16.7375C141.672 16.3042 140.839 16.0875 139.905 16.0875C138.989 16.0875 138.164 16.3042 137.43 16.7375C136.697 17.1542 136.114 17.7458 135.68 18.5125C135.247 19.2792 135.03 20.1792 135.03 21.2125C135.03 22.2292 135.247 23.1292 135.68 23.9125C136.114 24.6792 136.697 25.2792 137.43 25.7125C138.164 26.1292 138.989 26.3375 139.905 26.3375ZM144.855 27.7875V23.8375L145.03 21.1875L144.78 18.5375V9.2375H146.555V27.7875H144.855Z" fill="#3056D3"/>
<path d="M151.599 32.7625C150.982 32.7625 150.39 32.6625 149.824 32.4625C149.274 32.2625 148.799 31.9625 148.399 31.5625L149.224 30.2375C149.557 30.5542 149.915 30.7958 150.299 30.9625C150.699 31.1458 151.14 31.2375 151.624 31.2375C152.207 31.2375 152.707 31.0708 153.124 30.7375C153.557 30.4208 153.965 29.8542 154.349 29.0375L155.199 27.1125L155.399 26.8375L160.799 14.6625H162.549L155.974 29.3625C155.607 30.2125 155.199 30.8875 154.749 31.3875C154.315 31.8875 153.84 32.2375 153.324 32.4375C152.807 32.6542 152.232 32.7625 151.599 32.7625ZM155.099 28.1625L149.049 14.6625H150.899L156.249 26.7125L155.099 28.1625Z" fill="#3056D3"/>
</svg>
